<svg xmlns="http://www.w3.org/2000/svg" xmlns:xlink="http://www.w3.org/1999/xlink" id="Layer_1" x="0px" y="0px" viewBox="0 0 245 102" style="enable-background:new 0 0 245 102;" xml:space="preserve"><style type="text/css">	.st0{fill:#64676B;}			.st1{clip-path:url(#SVGID_00000077317014375529859530000005190565265145315985_);fill:url(#SVGID_00000078004015689436517120000013480695565899610276_);}	.st2{fill:#073C5C;}			.st3{clip-path:url(#SVGID_00000042008941199573040940000014241541548799039872_);fill:url(#SVGID_00000072238170690818161640000015154263630435088556_);}			.st4{clip-path:url(#SVGID_00000129925197856336359410000011636847486969224882_);fill:url(#SVGID_00000063593086783834192200000013784145129538131099_);}			.st5{clip-path:url(#SVGID_00000182519266477955443140000015975223931451368376_);fill:url(#SVGID_00000111878611873027505450000008017341637676249229_);}			.st6{clip-path:url(#SVGID_00000165202841939291727860000004421083577017527216_);fill:url(#SVGID_00000142158849603071330220000001390112195508567461_);}			.st7{clip-path:url(#SVGID_00000090257860830533643950000014188772163072518567_);fill:url(#SVGID_00000024682366245234041750000018431880328790334110_);}			.st8{clip-path:url(#SVGID_00000170976322598021141240000002604302341936498064_);fill:url(#SVGID_00000108272804862132527340000014705499425615124614_);}			.st9{clip-path:url(#SVGID_00000124160180584409112370000016347731247225794974_);fill:url(#SVGID_00000151503494768028552160000014851412573010136990_);}			.st10{clip-path:url(#SVGID_00000023983109738772154090000010342904026923847820_);fill:url(#SVGID_00000111167770812080073040000012932803392137205153_);}			.st11{clip-path:url(#SVGID_00000077310660523030482200000015856279018446085027_);fill:url(#SVGID_00000181784716464779359570000011883044357218657186_);}			.st12{clip-path:url(#SVGID_00000107562561248937655210000001980200622043377818_);fill:url(#SVGID_00000044140727980303591950000014648127695745404060_);}			.st13{clip-path:url(#SVGID_00000152242810719397413580000004627776833208168336_);fill:url(#SVGID_00000173130811450985803910000016162245181837201331_);}			.st14{clip-path:url(#SVGID_00000094593911960156152660000007893933931467825284_);fill:url(#SVGID_00000114774026481181598550000006723463207701611705_);}			.st15{clip-path:url(#SVGID_00000000180666671615391590000000125617984855856781_);fill:url(#SVGID_00000069381842949427782560000011571994286030335677_);}			.st16{clip-path:url(#SVGID_00000153670148628710584260000012144035972265068456_);fill:url(#SVGID_00000126283131600945746990000012172933125221557124_);}			.st17{clip-path:url(#SVGID_00000087380579698944910260000016958029221941069964_);fill:url(#SVGID_00000008147017424019856010000008567602622253464754_);}			.st18{clip-path:url(#SVGID_00000160894233160829368520000015912792603390754197_);fill:url(#SVGID_00000085211028484404273330000007106268009225817990_);}			.st19{clip-path:url(#SVGID_00000055677934252723604720000005231397800533039797_);fill:url(#SVGID_00000072965056322903477380000007564455483903445154_);}			.st20{clip-path:url(#SVGID_00000119075989233279222260000017232453280036622775_);fill:url(#SVGID_00000170970385962665070550000009301389881336688778_);}			.st21{clip-path:url(#SVGID_00000038386601212859093520000017944896925784240563_);fill:url(#SVGID_00000034809865002864913490000012585267597385265795_);}	.st22{fill:#010101;}</style><g>	<polygon class="st0" points="36.88,41.03 32.58,41.03 32.58,43.81 37.46,43.81 37.46,44.72 31.65,44.72 31.65,36.3 37.46,36.3   37.46,37.21 32.58,37.21 32.58,40.12 36.88,40.12  "></polygon>	<path class="st0" d="M47,43.18c0,0,0.82,0.81,2.39,0.81c1.47,0,2.1-0.59,2.1-1.45c0-0.79-0.49-1.18-2.22-1.7  c-1.93-0.59-2.76-1.19-2.76-2.47c0-1.43,1.12-2.26,2.93-2.26c1.93,0,2.8,0.8,2.8,0.8l-0.5,0.81c0,0-0.81-0.69-2.3-0.69  c-1.14,0-1.99,0.46-1.99,1.33c0,0.69,0.51,1.04,2.23,1.54c2.11,0.62,2.75,1.36,2.75,2.61c0,1.36-0.91,2.39-3.02,2.39  c-2.01,0-2.91-1-2.91-1L47,43.18z"></path>	<polygon class="st0" points="61.09,36.3 67.58,36.3 67.58,37.21 64.79,37.21 64.79,44.72 63.86,44.72 63.86,37.21 61.09,37.21  "></polygon>	<path class="st0" d="M79.58,44.72h-2.75V36.3h2.75c2.51,0,4.23,1.63,4.23,4.21C83.81,43.09,82.09,44.72,79.58,44.72 M77.76,37.21  v6.59h1.77c1.89,0,3.34-1.22,3.34-3.3c0-2.08-1.45-3.3-3.34-3.3H77.76z"></path>	<polygon class="st0" points="160.99,36.3 163.7,36.3 163.7,44.72 162.77,44.72 162.77,37.21 160.99,37.21  "></polygon>	<path class="st0" d="M178.21,41.25l-2.07,3.47h-1.12l1.89-3.12c0.15-0.24,0.36-0.39,0.36-0.39v-0.07  c-0.33,0.21-0.73,0.35-1.19,0.35c-1.72,0-2.83-1.14-2.83-2.65c0-1.68,1.22-2.72,2.83-2.72c1.69,0,2.87,1.07,2.87,2.74  C178.94,39.81,178.62,40.55,178.21,41.25 M178,38.84c0-1.05-0.85-1.8-1.93-1.8c-1.14,0-1.89,0.76-1.89,1.78  c0,1.01,0.7,1.74,1.89,1.74C177.07,40.57,178,39.99,178,38.84"></path>	<polygon class="st0" points="188.03,36.3 193.44,36.3 193.44,36.54 189.78,44.72 188.66,44.72 192.07,37.21 188.03,37.21  "></polygon>	<polygon class="st0" points="201.82,36.3 204.52,36.3 204.52,44.72 203.6,44.72 203.6,37.21 201.82,37.21  "></polygon>	<g>		<defs>			<polygon id="SVGID_1_" points="133.98,59.8 135.48,51.4 122.5,37    "></polygon>		</defs>		<clipPath id="SVGID_00000110473122478703998920000010877421984264440212_">			<use xlink:href="#SVGID_1_" style="overflow:visible;"></use>		</clipPath>					<linearGradient id="SVGID_00000079459354379365519140000002587325179701829523_" gradientUnits="userSpaceOnUse" x1="-837.1323" y1="1979.2382" x2="-836.1804" y2="1979.2382" gradientTransform="matrix(13.6313 0 0 -13.6313 11533.6963 27027.9805)">			<stop offset="0" style="stop-color:#0A9790"></stop>			<stop offset="0.2484" style="stop-color:#0A9790"></stop>			<stop offset="0.2813" style="stop-color:#269993"></stop>			<stop offset="0.5236" style="stop-color:#70ADAB"></stop>			<stop offset="0.7328" style="stop-color:#96BEBE"></stop>			<stop offset="0.8984" style="stop-color:#ADCACB"></stop>			<stop offset="1" style="stop-color:#B6CFD0"></stop>		</linearGradient>					<rect x="122.5" y="37" style="clip-path:url(#SVGID_00000110473122478703998920000010877421984264440212_);fill:url(#SVGID_00000079459354379365519140000002587325179701829523_);" width="12.98" height="22.8"></rect>	</g>	<polygon class="st2" points="122.5,37 109.52,51.4 111.02,59.8  "></polygon>	<g>		<defs>			<polygon id="SVGID_00000022532975003353159700000000528559665652705197_" points="111.02,59.8 121.38,55.36 121.82,50.01    "></polygon>		</defs>		<clipPath id="SVGID_00000090257218124706475710000018039478089266683797_">			<use xlink:href="#SVGID_00000022532975003353159700000000528559665652705197_" style="overflow:visible;"></use>		</clipPath>					<linearGradient id="SVGID_00000034088686540620112400000009829796683331054000_" gradientUnits="userSpaceOnUse" x1="-940.8678" y1="2069.3081" x2="-939.9159" y2="2069.3081" gradientTransform="matrix(6.8681 -14.9135 -14.9135 -6.8681 37433.9922 246.3746)">			<stop offset="0" style="stop-color:#073C5C"></stop>			<stop offset="0.2484" style="stop-color:#073C5C"></stop>			<stop offset="0.3073" style="stop-color:#054562"></stop>			<stop offset="0.5408" style="stop-color:#086474"></stop>			<stop offset="0.7424" style="stop-color:#0A7E83"></stop>			<stop offset="0.9021" style="stop-color:#0A908C"></stop>			<stop offset="1" style="stop-color:#0A9790"></stop>		</linearGradient>					<polygon style="clip-path:url(#SVGID_00000090257218124706475710000018039478089266683797_);fill:url(#SVGID_00000034088686540620112400000009829796683331054000_);" points="   107.29,58.09 112.91,45.9 125.55,51.72 119.93,63.91   "></polygon>	</g>	<polygon class="st2" points="123.18,50.01 123.62,55.36 133.98,59.8  "></polygon>	<g>		<defs>			<polygon id="SVGID_00000140736170332080473420000007419662219067384195_" points="122.5,41.87 122.5,41.88 122.5,41.87     123.18,50.01 133.98,59.8 122.5,37    "></polygon>		</defs>		<clipPath id="SVGID_00000011017087447886225850000006614102332787095732_">			<use xlink:href="#SVGID_00000140736170332080473420000007419662219067384195_" style="overflow:visible;"></use>		</clipPath>					<linearGradient id="SVGID_00000167381116100344666370000012155945280707642276_" gradientUnits="userSpaceOnUse" x1="-776.9033" y1="2075.8274" x2="-775.9514" y2="2075.8274" gradientTransform="matrix(14.5649 21.2635 21.2635 -14.5649 -32704.709 46789.0391)">			<stop offset="0" style="stop-color:#073C5C"></stop>			<stop offset="0.2484" style="stop-color:#073C5C"></stop>			<stop offset="0.3073" style="stop-color:#054562"></stop>			<stop offset="0.5408" style="stop-color:#086474"></stop>			<stop offset="0.7424" style="stop-color:#0A7E83"></stop>			<stop offset="0.9021" style="stop-color:#0A908C"></stop>			<stop offset="1" style="stop-color:#0A9790"></stop>		</linearGradient>					<polygon style="clip-path:url(#SVGID_00000011017087447886225850000006614102332787095732_);fill:url(#SVGID_00000167381116100344666370000012155945280707642276_);" points="   130.32,31.65 144.61,52.52 126.17,65.16 111.87,44.28   "></polygon>	</g>	<g>		<defs>			<polygon id="SVGID_00000125561120323470264160000005798394917256307341_" points="111.02,59.8 121.82,50 122.5,41.87 122.5,37        "></polygon>		</defs>		<clipPath id="SVGID_00000093871780650436654860000001592310995567889087_">			<use xlink:href="#SVGID_00000125561120323470264160000005798394917256307341_" style="overflow:visible;"></use>		</clipPath>					<linearGradient id="SVGID_00000168085031353051474980000003560802953051528884_" gradientUnits="userSpaceOnUse" x1="-918.42" y1="2062.2571" x2="-917.4681" y2="2062.2571" gradientTransform="matrix(10.6931 -15.8553 -15.8553 -10.6931 42628.1328 7549.1519)">			<stop offset="0" style="stop-color:#0A9790"></stop>			<stop offset="0.2484" style="stop-color:#0A9790"></stop>			<stop offset="0.2813" style="stop-color:#269993"></stop>			<stop offset="0.5236" style="stop-color:#70ADAB"></stop>			<stop offset="0.7328" style="stop-color:#96BEBE"></stop>			<stop offset="0.8984" style="stop-color:#ADCACB"></stop>			<stop offset="1" style="stop-color:#B6CFD0"></stop>		</linearGradient>					<polygon style="clip-path:url(#SVGID_00000093871780650436654860000001592310995567889087_);fill:url(#SVGID_00000168085031353051474980000003560802953051528884_);" points="   100.45,52.68 114.61,31.68 133.07,44.13 118.91,65.13   "></polygon>	</g>	<g>		<defs>			<polygon id="SVGID_00000097502722615859947230000017369864897831856544_" points="128.17,32.88 153.4,29.01 145.87,24.99    "></polygon>		</defs>		<clipPath id="SVGID_00000107556730263303020900000004742673814836912313_">			<use xlink:href="#SVGID_00000097502722615859947230000017369864897831856544_" style="overflow:visible;"></use>		</clipPath>					<linearGradient id="SVGID_00000093178180325930667340000016088701884754513554_" gradientUnits="userSpaceOnUse" x1="-968.1215" y1="2074.645" x2="-967.1696" y2="2074.645" gradientTransform="matrix(4.2123 -12.9641 -12.9641 -4.2123 31112.4102 -3775.6067)">			<stop offset="0" style="stop-color:#0A9790"></stop>			<stop offset="0.2484" style="stop-color:#0A9790"></stop>			<stop offset="0.2813" style="stop-color:#269993"></stop>			<stop offset="0.5236" style="stop-color:#70ADAB"></stop>			<stop offset="0.7328" style="stop-color:#96BEBE"></stop>			<stop offset="0.8984" style="stop-color:#ADCACB"></stop>			<stop offset="1" style="stop-color:#B6CFD0"></stop>		</linearGradient>					<polygon style="clip-path:url(#SVGID_00000107556730263303020900000004742673814836912313_);fill:url(#SVGID_00000093178180325930667340000016088701884754513554_);" points="   125.85,32.13 130.58,17.58 155.72,25.75 150.99,40.3   "></polygon>	</g>	<polygon class="st2" points="128.17,32.88 137.85,49.67 146.3,50.85  "></polygon>	<g>		<defs>			<polygon id="SVGID_00000152977642082518634380000007476224574563166632_" points="146.3,50.85 145.28,39.62 140.32,37.55    "></polygon>		</defs>		<clipPath id="SVGID_00000101096328487787331140000001493425674561854388_">			<use xlink:href="#SVGID_00000152977642082518634380000007476224574563166632_" style="overflow:visible;"></use>		</clipPath>					<linearGradient id="SVGID_00000062880568130861465270000010644894292615680930_" gradientUnits="userSpaceOnUse" x1="-914.4464" y1="2201.2029" x2="-913.4944" y2="2201.2029" gradientTransform="matrix(-12.0613 -11.1405 -11.1405 12.0613 13645.2217 -36684.2227)">			<stop offset="0" style="stop-color:#073C5C"></stop>			<stop offset="0.2484" style="stop-color:#073C5C"></stop>			<stop offset="0.3073" style="stop-color:#054562"></stop>			<stop offset="0.5408" style="stop-color:#086474"></stop>			<stop offset="0.7424" style="stop-color:#0A7E83"></stop>			<stop offset="0.9021" style="stop-color:#0A908C"></stop>			<stop offset="1" style="stop-color:#0A9790"></stop>		</linearGradient>					<polygon style="clip-path:url(#SVGID_00000101096328487787331140000001493425674561854388_);fill:url(#SVGID_00000062880568130861465270000010644894292615680930_);" points="   143.55,53.83 133.69,44.73 143.08,34.57 152.94,43.67   "></polygon>	</g>	<polygon class="st2" points="140.74,36.26 145.97,37.49 153.4,29.01  "></polygon>	<g>		<defs>			<path id="SVGID_00000167354264995749610710000013980239062117494923_" d="M132.8,34.39L132.8,34.39L132.8,34.39L132.8,34.39z     M128.17,32.88l4.63,1.5l7.95,1.87l12.66-7.25L128.17,32.88z"></path>		</defs>		<clipPath id="SVGID_00000082342675305332257050000007193517884806201250_">			<use xlink:href="#SVGID_00000167354264995749610710000013980239062117494923_" style="overflow:visible;"></use>		</clipPath>					<linearGradient id="SVGID_00000171702456566035778600000017846002485699188143_" gradientUnits="userSpaceOnUse" x1="-857.6635" y1="2047.1105" x2="-856.7116" y2="2047.1105" gradientTransform="matrix(24.7236 -7.2812 -7.2812 -24.7236 36235.875 44404.1172)">			<stop offset="0" style="stop-color:#073C5C"></stop>			<stop offset="0.2484" style="stop-color:#073C5C"></stop>			<stop offset="0.3073" style="stop-color:#054562"></stop>			<stop offset="0.5408" style="stop-color:#086474"></stop>			<stop offset="0.7424" style="stop-color:#0A7E83"></stop>			<stop offset="0.9021" style="stop-color:#0A908C"></stop>			<stop offset="1" style="stop-color:#0A9790"></stop>		</linearGradient>					<polygon style="clip-path:url(#SVGID_00000082342675305332257050000007193517884806201250_);fill:url(#SVGID_00000171702456566035778600000017846002485699188143_);" points="   126.2,29.59 151.39,22.17 155.37,35.68 130.18,43.1   "></polygon>	</g>	<g>		<defs>			<polygon id="SVGID_00000088107486996532546630000017262366609441818248_" points="146.3,50.85 140.32,37.55 132.8,34.39     128.17,32.88    "></polygon>		</defs>		<clipPath id="SVGID_00000168804918144972769050000013459411977285703612_">			<use xlink:href="#SVGID_00000088107486996532546630000017262366609441818248_" style="overflow:visible;"></use>		</clipPath>					<linearGradient id="SVGID_00000057134664342333553970000013326200821910722216_" gradientUnits="userSpaceOnUse" x1="-914.2716" y1="2177.6702" x2="-913.3197" y2="2177.6702" gradientTransform="matrix(-11.775 -15.0693 -15.0693 11.775 22195.6484 -39367.4609)">			<stop offset="0" style="stop-color:#0A9790"></stop>			<stop offset="0.2484" style="stop-color:#0A9790"></stop>			<stop offset="0.2813" style="stop-color:#269993"></stop>			<stop offset="0.5236" style="stop-color:#70ADAB"></stop>			<stop offset="0.7328" style="stop-color:#96BEBE"></stop>			<stop offset="0.8984" style="stop-color:#ADCACB"></stop>			<stop offset="1" style="stop-color:#B6CFD0"></stop>		</linearGradient>					<polygon style="clip-path:url(#SVGID_00000168804918144972769050000013459411977285703612_);fill:url(#SVGID_00000057134664342333553970000013326200821910722216_);" points="   135.04,59.65 119.45,39.7 139.43,24.09 155.02,44.04   "></polygon>	</g>	<g>		<defs>			<polygon id="SVGID_00000153702668840517163820000004304761573427297449_" points="123.97,6.95 126,26.22 130.12,1.03    "></polygon>		</defs>		<clipPath id="SVGID_00000023242717740996631510000000652170218200958363_">			<use xlink:href="#SVGID_00000153702668840517163820000004304761573427297449_" style="overflow:visible;"></use>		</clipPath>					<linearGradient id="SVGID_00000141416331786923732220000010706853203196430225_" gradientUnits="userSpaceOnUse" x1="-917.9052" y1="2228.6897" x2="-916.9533" y2="2228.6897" gradientTransform="matrix(-11.0279 -8.0123 -8.0123 11.0279 7866.6138 -31914.9004)">			<stop offset="0" style="stop-color:#0A9790"></stop>			<stop offset="0.2484" style="stop-color:#0A9790"></stop>			<stop offset="0.2813" style="stop-color:#269993"></stop>			<stop offset="0.5236" style="stop-color:#70ADAB"></stop>			<stop offset="0.7328" style="stop-color:#96BEBE"></stop>			<stop offset="0.8984" style="stop-color:#ADCACB"></stop>			<stop offset="1" style="stop-color:#B6CFD0"></stop>		</linearGradient>					<polygon style="clip-path:url(#SVGID_00000023242717740996631510000000652170218200958363_);fill:url(#SVGID_00000141416331786923732220000010706853203196430225_);" points="   127.99,29.15 111.98,17.52 126.09,-1.9 142.1,9.73   "></polygon>	</g>	<polygon class="st2" points="126,26.22 144.96,22.2 148.69,14.52  "></polygon>	<g>		<defs>			<polygon id="SVGID_00000179620991090430088380000016548241570523048364_" points="134.19,16.1 148.69,14.52 137.7,12.03    "></polygon>		</defs>		<clipPath id="SVGID_00000168801835578605821120000009834208676288604044_">			<use xlink:href="#SVGID_00000179620991090430088380000016548241570523048364_" style="overflow:visible;"></use>		</clipPath>					<linearGradient id="SVGID_00000083797987230787207860000014642245421470231972_" gradientUnits="userSpaceOnUse" x1="-780.8423" y1="2216.7659" x2="-779.8904" y2="2216.7659" gradientTransform="matrix(-14.3223 8.0283 8.0283 14.3223 -28828.9961 -25471.9395)">			<stop offset="0" style="stop-color:#073C5C"></stop>			<stop offset="0.2484" style="stop-color:#073C5C"></stop>			<stop offset="0.3073" style="stop-color:#054562"></stop>			<stop offset="0.5408" style="stop-color:#086474"></stop>			<stop offset="0.7424" style="stop-color:#0A7E83"></stop>			<stop offset="0.9021" style="stop-color:#0A908C"></stop>			<stop offset="1" style="stop-color:#0A9790"></stop>		</linearGradient>					<polygon style="clip-path:url(#SVGID_00000168801835578605821120000009834208676288604044_);fill:url(#SVGID_00000083797987230787207860000014642245421470231972_);" points="   150.43,15.13 137.66,22.29 132.46,13 145.23,5.85   "></polygon>	</g>	<polygon class="st2" points="133.1,15.3 135.88,10.71 130.12,1.03  "></polygon>	<g>		<defs>			<polygon id="SVGID_00000145764301495771388490000009792575004318193557_" points="126,26.22 128.87,22.28 128.86,22.29     133.1,15.3 130.12,1.03    "></polygon>		</defs>		<clipPath id="SVGID_00000018917830769258218920000013234750985713989550_">			<use xlink:href="#SVGID_00000145764301495771388490000009792575004318193557_" style="overflow:visible;"></use>		</clipPath>					<linearGradient id="SVGID_00000054226545426723693400000007695565000397897630_" gradientUnits="userSpaceOnUse" x1="-909.8715" y1="2115.0684" x2="-908.9196" y2="2115.0684" gradientTransform="matrix(0.7151 -25.7636 -25.7636 -0.7151 55271.4922 -21899.2539)">			<stop offset="0" style="stop-color:#073C5C"></stop>			<stop offset="0.2484" style="stop-color:#073C5C"></stop>			<stop offset="0.3073" style="stop-color:#054562"></stop>			<stop offset="0.5408" style="stop-color:#086474"></stop>			<stop offset="0.7424" style="stop-color:#0A7E83"></stop>			<stop offset="0.9021" style="stop-color:#0A908C"></stop>			<stop offset="1" style="stop-color:#0A9790"></stop>		</linearGradient>					<polygon style="clip-path:url(#SVGID_00000018917830769258218920000013234750985713989550_);fill:url(#SVGID_00000054226545426723693400000007695565000397897630_);" points="   125.3,26.2 126.01,0.83 133.8,1.05 133.09,26.42   "></polygon>	</g>	<g>		<defs>			<polygon id="SVGID_00000016043828171065211840000006750822900676508561_" points="134.19,16.1 128.86,22.28 126,26.22     148.69,14.52    "></polygon>		</defs>		<clipPath id="SVGID_00000051384238171484972660000003185995000222442663_">			<use xlink:href="#SVGID_00000016043828171065211840000006750822900676508561_" style="overflow:visible;"></use>		</clipPath>					<linearGradient id="SVGID_00000024690770518516373710000017389676677855805069_" gradientUnits="userSpaceOnUse" x1="-803.2254" y1="2209.3892" x2="-802.2735" y2="2209.3892" gradientTransform="matrix(-17.9704 6.542 6.542 17.9704 -28738.6797 -34433.0469)">			<stop offset="0" style="stop-color:#0A9790"></stop>			<stop offset="0.2484" style="stop-color:#0A9790"></stop>			<stop offset="0.2813" style="stop-color:#269993"></stop>			<stop offset="0.5236" style="stop-color:#70ADAB"></stop>			<stop offset="0.7328" style="stop-color:#96BEBE"></stop>			<stop offset="0.8984" style="stop-color:#ADCACB"></stop>			<stop offset="1" style="stop-color:#B6CFD0"></stop>		</linearGradient>					<polygon style="clip-path:url(#SVGID_00000051384238171484972660000003185995000222442663_);fill:url(#SVGID_00000024690770518516373710000017389676677855805069_);" points="   152.45,24.85 128.66,33.52 122.24,15.89 146.04,7.23   "></polygon>	</g>	<g>		<defs>			<polygon id="SVGID_00000093169840030833399520000013291510569186633107_" points="100.04,22.2 119,26.22 96.3,14.52    "></polygon>		</defs>		<clipPath id="SVGID_00000057858043884529006950000018193213831908900015_">			<use xlink:href="#SVGID_00000093169840030833399520000013291510569186633107_" style="overflow:visible;"></use>		</clipPath>					<linearGradient id="SVGID_00000066500517685904623740000001525092975028812983_" gradientUnits="userSpaceOnUse" x1="-755.8807" y1="2228.4902" x2="-754.9288" y2="2228.4902" gradientTransform="matrix(-11.0279 8.0123 8.0123 11.0279 -26078.793 -18502.3555)">			<stop offset="0" style="stop-color:#0A9790"></stop>			<stop offset="0.2484" style="stop-color:#0A9790"></stop>			<stop offset="0.2813" style="stop-color:#269993"></stop>			<stop offset="0.5236" style="stop-color:#70ADAB"></stop>			<stop offset="0.7328" style="stop-color:#96BEBE"></stop>			<stop offset="0.8984" style="stop-color:#ADCACB"></stop>			<stop offset="1" style="stop-color:#B6CFD0"></stop>		</linearGradient>					<polygon style="clip-path:url(#SVGID_00000057858043884529006950000018193213831908900015_);fill:url(#SVGID_00000066500517685904623740000001525092975028812983_);" points="   124.56,22.18 104.14,37.01 90.74,18.57 111.16,3.73   "></polygon>	</g>	<polygon class="st2" points="119,26.22 121.03,6.95 114.88,1.03  "></polygon>	<g>		<defs>			<polygon id="SVGID_00000068654358997687632560000006163199596555306371_" points="109.11,10.71 111.9,15.3 114.88,1.03    "></polygon>		</defs>		<clipPath id="SVGID_00000053533018466238402710000012071066238641299598_">			<use xlink:href="#SVGID_00000068654358997687632560000006163199596555306371_" style="overflow:visible;"></use>		</clipPath>					<linearGradient id="SVGID_00000030452052540625401450000007535489313944042131_" gradientUnits="userSpaceOnUse" x1="-724.6919" y1="2094.5137" x2="-723.74" y2="2094.5137" gradientTransform="matrix(3.2096 16.1022 16.1022 -3.2096 -31290.7383 18388.2285)">			<stop offset="0" style="stop-color:#073C5C"></stop>			<stop offset="0.2484" style="stop-color:#073C5C"></stop>			<stop offset="0.3073" style="stop-color:#054562"></stop>			<stop offset="0.5408" style="stop-color:#086474"></stop>			<stop offset="0.7424" style="stop-color:#0A7E83"></stop>			<stop offset="0.9021" style="stop-color:#0A908C"></stop>			<stop offset="1" style="stop-color:#0A9790"></stop>		</linearGradient>					<polygon style="clip-path:url(#SVGID_00000053533018466238402710000012071066238641299598_);fill:url(#SVGID_00000030452052540625401450000007535489313944042131_);" points="   114.66,-0.08 117.62,14.76 109.34,16.41 106.38,1.57   "></polygon>	</g>	<polygon class="st2" points="110.81,16.1 107.3,12.03 96.3,14.52  "></polygon>	<g>		<defs>			<polygon id="SVGID_00000131369681860802962950000010471261560669626525_" points="119,26.22 116.13,22.28 116.14,22.29     110.81,16.1 96.3,14.52    "></polygon>		</defs>		<clipPath id="SVGID_00000146471515878284155460000012409272961164683908_">			<use xlink:href="#SVGID_00000131369681860802962950000010471261560669626525_" style="overflow:visible;"></use>		</clipPath>					<linearGradient id="SVGID_00000066478809393346114460000010204917465391465124_" gradientUnits="userSpaceOnUse" x1="-861.3776" y1="2185.7776" x2="-860.4257" y2="2185.7776" gradientTransform="matrix(-24.2816 -8.6415 -8.6415 24.2816 -1904.4326 -60492.0703)">			<stop offset="0" style="stop-color:#073C5C"></stop>			<stop offset="0.2484" style="stop-color:#073C5C"></stop>			<stop offset="0.3073" style="stop-color:#054562"></stop>			<stop offset="0.5408" style="stop-color:#086474"></stop>			<stop offset="0.7424" style="stop-color:#0A7E83"></stop>			<stop offset="0.9021" style="stop-color:#0A908C"></stop>			<stop offset="1" style="stop-color:#0A9790"></stop>		</linearGradient>					<polygon style="clip-path:url(#SVGID_00000146471515878284155460000012409272961164683908_);fill:url(#SVGID_00000066478809393346114460000010204917465391465124_);" points="   116.45,33.39 92.61,24.91 98.86,7.36 122.69,15.84   "></polygon>	</g>	<g>		<defs>			<polygon id="SVGID_00000125560818163787781540000013575707901657328032_" points="111.9,15.3 116.14,22.28 119,26.22     114.88,1.03    "></polygon>		</defs>		<clipPath id="SVGID_00000041271208971187911880000000739215490781908926_">			<use xlink:href="#SVGID_00000125560818163787781540000013575707901657328032_" style="overflow:visible;"></use>		</clipPath>					<linearGradient id="SVGID_00000052799292951421060620000003908169783838511541_" gradientUnits="userSpaceOnUse" x1="-738.7435" y1="2113.502" x2="-737.7916" y2="2113.502" gradientTransform="matrix(0.6686 19.1125 19.1125 -0.6686 -39785.3516 15533.1992)">			<stop offset="0" style="stop-color:#0A9790"></stop>			<stop offset="0.2484" style="stop-color:#0A9790"></stop>			<stop offset="0.2813" style="stop-color:#269993"></stop>			<stop offset="0.5236" style="stop-color:#70ADAB"></stop>			<stop offset="0.7328" style="stop-color:#96BEBE"></stop>			<stop offset="0.8984" style="stop-color:#ADCACB"></stop>			<stop offset="1" style="stop-color:#B6CFD0"></stop>		</linearGradient>					<polygon style="clip-path:url(#SVGID_00000041271208971187911880000000739215490781908926_);fill:url(#SVGID_00000052799292951421060620000003908169783838511541_);" points="   118.99,0.78 119.88,26.19 111.91,26.47 111.02,1.06   "></polygon>	</g>	<g>		<defs>			<polygon id="SVGID_00000088822884777090800940000009971914244873693595_" points="98.69,50.85 107.15,49.67 116.83,32.88    "></polygon>		</defs>		<clipPath id="SVGID_00000001621505133071366470000002707655476740220607_">			<use xlink:href="#SVGID_00000088822884777090800940000009971914244873693595_" style="overflow:visible;"></use>		</clipPath>					<linearGradient id="SVGID_00000040545067891509438500000008156883811434932406_" gradientUnits="userSpaceOnUse" x1="-705.9603" y1="2074.3479" x2="-705.0085" y2="2074.3479" gradientTransform="matrix(4.2123 12.9641 12.9641 -4.2123 -23812.4102 17926.3496)">			<stop offset="0" style="stop-color:#0A9790"></stop>			<stop offset="0.2484" style="stop-color:#0A9790"></stop>			<stop offset="0.2813" style="stop-color:#269993"></stop>			<stop offset="0.5236" style="stop-color:#70ADAB"></stop>			<stop offset="0.7328" style="stop-color:#96BEBE"></stop>			<stop offset="0.8984" style="stop-color:#ADCACB"></stop>			<stop offset="1" style="stop-color:#B6CFD0"></stop>		</linearGradient>					<polygon style="clip-path:url(#SVGID_00000001621505133071366470000002707655476740220607_);fill:url(#SVGID_00000040545067891509438500000008156883811434932406_);" points="   115.1,27.55 122.11,49.14 100.43,56.18 93.41,34.6   "></polygon>	</g>	<polygon class="st2" points="116.83,32.88 99.13,24.99 91.6,29.01  "></polygon>	<g>		<defs>			<polygon id="SVGID_00000174598667229946033960000017254056355817016253_" points="99.03,37.49 104.26,36.26 91.6,29.01    "></polygon>		</defs>		<clipPath id="SVGID_00000090991466823921446410000016358578276692933819_">			<use xlink:href="#SVGID_00000174598667229946033960000017254056355817016253_" style="overflow:visible;"></use>		</clipPath>					<linearGradient id="SVGID_00000059279359589755759800000007714493013184358288_" gradientUnits="userSpaceOnUse" x1="-823.5931" y1="2003.3849" x2="-822.6412" y2="2003.3849" gradientTransform="matrix(16.306 1.9234 1.9234 -16.306 9662.04 34283.0234)">			<stop offset="0" style="stop-color:#073C5C"></stop>			<stop offset="0.2484" style="stop-color:#073C5C"></stop>			<stop offset="0.3073" style="stop-color:#054562"></stop>			<stop offset="0.5408" style="stop-color:#086474"></stop>			<stop offset="0.7424" style="stop-color:#0A7E83"></stop>			<stop offset="0.9021" style="stop-color:#0A908C"></stop>			<stop offset="1" style="stop-color:#0A9790"></stop>		</linearGradient>					<polygon style="clip-path:url(#SVGID_00000090991466823921446410000016358578276692933819_);fill:url(#SVGID_00000059279359589755759800000007714493013184358288_);" points="   91.77,27.54 105.24,29.13 104.08,38.96 90.61,37.37   "></polygon>	</g>	<polygon class="st2" points="104.67,37.55 99.72,39.62 98.69,50.85  "></polygon>	<g>		<defs>			<polygon id="SVGID_00000038382546461753248070000009560021199729651882_" points="112.2,34.39 112.21,34.39 104.67,37.55     98.69,50.85 116.83,32.88    "></polygon>		</defs>		<clipPath id="SVGID_00000071548468290315747170000002402986831412651163_">			<use xlink:href="#SVGID_00000038382546461753248070000009560021199729651882_" style="overflow:visible;"></use>		</clipPath>					<linearGradient id="SVGID_00000103225261726991624910000004956846638459510946_" gradientUnits="userSpaceOnUse" x1="-779.1988" y1="2161.4895" x2="-778.2469" y2="2161.4895" gradientTransform="matrix(-15.722 20.4228 20.4228 15.722 -56276.7148 -18040.3672)">			<stop offset="0" style="stop-color:#073C5C"></stop>			<stop offset="0.2484" style="stop-color:#073C5C"></stop>			<stop offset="0.3073" style="stop-color:#054562"></stop>			<stop offset="0.5408" style="stop-color:#086474"></stop>			<stop offset="0.7424" style="stop-color:#0A7E83"></stop>			<stop offset="0.9021" style="stop-color:#0A908C"></stop>			<stop offset="1" style="stop-color:#0A9790"></stop>		</linearGradient>					<polygon style="clip-path:url(#SVGID_00000071548468290315747170000002402986831412651163_);fill:url(#SVGID_00000103225261726991624910000004956846638459510946_);" points="   125.52,39.57 110.08,59.62 90.01,44.17 105.44,24.12   "></polygon>	</g>	<g>		<defs>			<polygon id="SVGID_00000183953444024131070730000006732178143448654494_" points="104.26,36.26 112.2,34.39 116.83,32.88     91.6,29.01    "></polygon>		</defs>		<clipPath id="SVGID_00000121262244564584718160000014821637116065933960_">			<use xlink:href="#SVGID_00000183953444024131070730000006732178143448654494_" style="overflow:visible;"></use>		</clipPath>					<linearGradient id="SVGID_00000075866141057533471090000012173511171734914437_" gradientUnits="userSpaceOnUse" x1="-809.9377" y1="2022.5623" x2="-808.9858" y2="2022.5623" gradientTransform="matrix(18.3837 5.2702 5.2702 -18.3837 4321.7651 41479.625)">			<stop offset="0" style="stop-color:#0A9790"></stop>			<stop offset="0.2484" style="stop-color:#0A9790"></stop>			<stop offset="0.2813" style="stop-color:#269993"></stop>			<stop offset="0.5236" style="stop-color:#70ADAB"></stop>			<stop offset="0.7328" style="stop-color:#96BEBE"></stop>			<stop offset="0.8984" style="stop-color:#ADCACB"></stop>			<stop offset="1" style="stop-color:#B6CFD0"></stop>		</linearGradient>					<polygon style="clip-path:url(#SVGID_00000121262244564584718160000014821637116065933960_);fill:url(#SVGID_00000075866141057533471090000012173511171734914437_);" points="   93.51,22.33 118.75,29.56 114.92,42.94 89.68,35.71   "></polygon>	</g>	<path class="st22" d="M14.03,77.72h0.75l11.04,22.76h-4.89l-1.39-3.11H9.28l-1.36,3.11H3.03L14.03,77.72z M14.53,86.03h-0.29  L11,93.46l-0.25,0.49h7.29l-0.25-0.49L14.53,86.03z"></path>	<path class="st22" d="M34.36,94.56c0,0,2.82,2.2,6.32,2.2c2.61,0,3.64-1.1,3.64-2.54c0-1.48-0.93-2.24-4.64-3.34  c-4.86-1.44-7.39-3.26-7.39-6.91c0-4.06,2.86-6.75,8.36-6.75c5.75,0,8.11,2.35,8.11,2.35l-2.32,3.76c0,0-2.29-1.9-5.79-1.9  c-2.36,0-3.5,0.87-3.5,2.28c0,1.37,1.11,1.97,4.47,2.96c5.25,1.48,7.64,3.45,7.64,7.13c0,3.98-2.61,7.17-8.47,7.17  c-5.89,0-8.79-2.92-8.79-2.92L34.36,94.56z"></path>	<rect x="59.4" y="77.72" class="st22" width="4.32" height="22.76"></rect>	<path class="st22" d="M83.4,77.72h0.75l11.04,22.76H90.3l-1.39-3.11H78.65l-1.36,3.11H72.4L83.4,77.72z M83.9,86.03h-0.29  l-3.25,7.44l-0.25,0.49h7.29l-0.25-0.49L83.9,86.03z"></path>	<polygon class="st22" points="123.55,100.48 122.52,100.48 108.16,86.6 108.16,100.48 103.83,100.48 103.83,77.72 104.91,77.72   119.27,91.3 119.27,77.75 123.55,77.75  "></polygon>	<path class="st22" d="M148.59,94.56c0,0,2.82,2.2,6.32,2.2c2.61,0,3.64-1.1,3.64-2.54c0-1.48-0.93-2.24-4.64-3.34  c-4.86-1.44-7.4-3.26-7.4-6.91c0-4.06,2.86-6.75,8.36-6.75c5.75,0,8.11,2.35,8.11,2.35l-2.32,3.76c0,0-2.29-1.9-5.79-1.9  c-2.36,0-3.5,0.87-3.5,2.28c0,1.37,1.11,1.97,4.47,2.96c5.25,1.48,7.64,3.45,7.64,7.13c0,3.98-2.61,7.17-8.47,7.17  c-5.9,0-8.79-2.92-8.79-2.92L148.59,94.56z"></path>	<polygon class="st22" points="169.38,77.72 187.67,77.72 187.67,81.74 180.71,81.74 180.71,100.48 176.38,100.48 176.38,81.74   169.38,81.74  "></polygon>	<path class="st22" d="M202,77.72h0.75l11.04,22.76h-4.89l-1.39-3.11h-10.25l-1.36,3.11h-4.89L202,77.72z M202.5,86.03h-0.29  l-3.25,7.44l-0.25,0.49H206l-0.25-0.49L202.5,86.03z"></path>	<path class="st22" d="M222.43,77.72h9.68c5.43,0,8.79,2.85,8.79,7.82c0,3.38-1.57,5.69-4.04,6.94v0.34l5.11,7.21v0.46h-4.89  l-4.75-6.94h-5.57v6.94h-4.32V77.72z M231.97,81.74h-5.22v7.93h5.32c2.71,0,4.36-1.29,4.36-3.95  C236.43,83.1,234.75,81.74,231.97,81.74"></path></g></svg>